<mxfile host="app.diagrams.net" agent="Mozilla/5.0 (Windows NT 10.0; Win64; x64) AppleWebKit/537.36 (KHTML, like Gecko) Chrome/140.0.0.0 Safari/537.36" version="28.2.4">
  <diagram name="Page-1" id="TqLUNkCwOybPHTqv2TvR">
    <mxGraphModel grid="1" page="1" gridSize="10" guides="1" tooltips="1" connect="1" arrows="1" fold="1" pageScale="1" pageWidth="850" pageHeight="1100" math="0" shadow="0">
      <root>
        <mxCell id="0" />
        <mxCell id="1" parent="0" />
        <mxCell id="x__HHg9qroRg_zMr_CtL-9" style="edgeStyle=orthogonalEdgeStyle;rounded=0;orthogonalLoop=1;jettySize=auto;html=1;entryX=0.5;entryY=0;entryDx=0;entryDy=0;labelBackgroundColor=none;fontColor=default;" edge="1" parent="1" source="x__HHg9qroRg_zMr_CtL-1" target="x__HHg9qroRg_zMr_CtL-2">
          <mxGeometry relative="1" as="geometry" />
        </mxCell>
        <mxCell id="x__HHg9qroRg_zMr_CtL-1" value="Panning" style="ellipse;whiteSpace=wrap;html=1;fontStyle=0;labelBackgroundColor=none;" vertex="1" parent="1">
          <mxGeometry x="360" y="20" width="120" height="80" as="geometry" />
        </mxCell>
        <mxCell id="x__HHg9qroRg_zMr_CtL-10" style="edgeStyle=orthogonalEdgeStyle;rounded=0;orthogonalLoop=1;jettySize=auto;html=1;entryX=0.5;entryY=0;entryDx=0;entryDy=0;labelBackgroundColor=none;fontColor=default;" edge="1" parent="1" source="x__HHg9qroRg_zMr_CtL-2" target="x__HHg9qroRg_zMr_CtL-3">
          <mxGeometry relative="1" as="geometry" />
        </mxCell>
        <mxCell id="x__HHg9qroRg_zMr_CtL-2" value="Develop" style="ellipse;whiteSpace=wrap;html=1;labelBackgroundColor=none;" vertex="1" parent="1">
          <mxGeometry x="360" y="180" width="120" height="80" as="geometry" />
        </mxCell>
        <mxCell id="x__HHg9qroRg_zMr_CtL-3" value="Build" style="ellipse;whiteSpace=wrap;html=1;labelBackgroundColor=none;" vertex="1" parent="1">
          <mxGeometry x="360" y="360" width="120" height="80" as="geometry" />
        </mxCell>
        <mxCell id="x__HHg9qroRg_zMr_CtL-4" value="Testing" style="ellipse;whiteSpace=wrap;html=1;labelBackgroundColor=none;" vertex="1" parent="1">
          <mxGeometry x="365" y="520" width="120" height="80" as="geometry" />
        </mxCell>
        <mxCell id="x__HHg9qroRg_zMr_CtL-11" style="edgeStyle=orthogonalEdgeStyle;rounded=0;orthogonalLoop=1;jettySize=auto;html=1;entryX=0.458;entryY=0.125;entryDx=0;entryDy=0;entryPerimeter=0;labelBackgroundColor=none;fontColor=default;" edge="1" parent="1" source="x__HHg9qroRg_zMr_CtL-3" target="x__HHg9qroRg_zMr_CtL-4">
          <mxGeometry relative="1" as="geometry" />
        </mxCell>
        <mxCell id="x__HHg9qroRg_zMr_CtL-19" style="edgeStyle=orthogonalEdgeStyle;rounded=0;orthogonalLoop=1;jettySize=auto;html=1;labelBackgroundColor=none;fontColor=default;" edge="1" parent="1" source="x__HHg9qroRg_zMr_CtL-12" target="x__HHg9qroRg_zMr_CtL-13">
          <mxGeometry relative="1" as="geometry" />
        </mxCell>
        <mxCell id="x__HHg9qroRg_zMr_CtL-12" value="Release" style="ellipse;whiteSpace=wrap;html=1;labelBackgroundColor=none;" vertex="1" parent="1">
          <mxGeometry x="360" y="660" width="120" height="80" as="geometry" />
        </mxCell>
        <mxCell id="x__HHg9qroRg_zMr_CtL-13" value="Deploy" style="ellipse;whiteSpace=wrap;html=1;labelBackgroundColor=none;" vertex="1" parent="1">
          <mxGeometry x="360" y="820" width="120" height="80" as="geometry" />
        </mxCell>
        <mxCell id="x__HHg9qroRg_zMr_CtL-14" value="Operate" style="ellipse;whiteSpace=wrap;html=1;labelBackgroundColor=none;" vertex="1" parent="1">
          <mxGeometry x="365" y="970" width="120" height="80" as="geometry" />
        </mxCell>
        <mxCell id="x__HHg9qroRg_zMr_CtL-15" value="monitor" style="ellipse;whiteSpace=wrap;html=1;labelBackgroundColor=none;" vertex="1" parent="1">
          <mxGeometry x="730" y="960" width="120" height="80" as="geometry" />
        </mxCell>
        <mxCell id="x__HHg9qroRg_zMr_CtL-16" style="edgeStyle=orthogonalEdgeStyle;rounded=0;orthogonalLoop=1;jettySize=auto;html=1;entryX=0;entryY=0.638;entryDx=0;entryDy=0;entryPerimeter=0;labelBackgroundColor=none;fontColor=default;" edge="1" parent="1" source="x__HHg9qroRg_zMr_CtL-14" target="x__HHg9qroRg_zMr_CtL-15">
          <mxGeometry relative="1" as="geometry" />
        </mxCell>
        <mxCell id="x__HHg9qroRg_zMr_CtL-18" style="edgeStyle=orthogonalEdgeStyle;rounded=0;orthogonalLoop=1;jettySize=auto;html=1;entryX=0.542;entryY=0.125;entryDx=0;entryDy=0;entryPerimeter=0;labelBackgroundColor=none;fontColor=default;" edge="1" parent="1" source="x__HHg9qroRg_zMr_CtL-4" target="x__HHg9qroRg_zMr_CtL-12">
          <mxGeometry relative="1" as="geometry" />
        </mxCell>
        <mxCell id="x__HHg9qroRg_zMr_CtL-20" style="edgeStyle=orthogonalEdgeStyle;rounded=0;orthogonalLoop=1;jettySize=auto;html=1;entryX=0.458;entryY=0.125;entryDx=0;entryDy=0;entryPerimeter=0;labelBackgroundColor=none;fontColor=default;" edge="1" parent="1" source="x__HHg9qroRg_zMr_CtL-13" target="x__HHg9qroRg_zMr_CtL-14">
          <mxGeometry relative="1" as="geometry" />
        </mxCell>
      </root>
    </mxGraphModel>
  </diagram>
</mxfile>
